<svg width="119" height="107" viewBox="0 0 119 107" fill="none" xmlns="http://www.w3.org/2000/svg">
<path d="M63.1378 104.296C60.7363 105.693 57.7637 105.693 55.3622 104.296C54.4015 103.737 53.4465 103.168 52.5 102.582C39.2868 94.4009 0 67.5109 0 37.803C0 21.903 8.475 8.92803 22.575 3.07803C35.025 -2.09697 49.35 -0.596972 59.25 6.45303C69.075 -0.596972 83.475 -2.09697 95.925 3.07803C110.1 8.92803 118.5 21.903 118.5 37.803C118.5 67.5109 79.2132 94.4009 66 102.582C65.0535 103.168 64.0985 103.737 63.1378 104.296Z" fill="white"/>
<path d="M63.1478 94.6387C60.7417 96.0276 57.7592 96.0259 55.3595 94.6258C55.0848 94.4655 54.8107 94.3039 54.5375 94.1409C45.0231 88.4635 8.25 64.9727 8.25 39.2281C8.25 25.7281 15.525 14.928 27.75 10.278C38.625 6.15305 50.625 7.95305 59.25 14.628C67.875 7.95305 79.875 6.15305 90.75 10.278C102.975 14.928 110.25 25.7281 110.25 39.2281C110.25 65.0057 73.573 88.4761 64 94.1409C63.7169 94.3084 63.4327 94.4742 63.1478 94.6387ZM39.6 18.603C36.9 18.603 34.125 19.053 31.5 20.103C23.4 23.178 18.75 30.1531 18.75 39.3031C18.75 57.0031 45.9 76.9531 59.25 84.8281C72.525 76.8781 99.75 57.0031 99.75 39.3031C99.75 30.2281 95.1 23.178 87 20.103C78.525 16.878 68.775 19.0531 63.15 25.2781C61.05 27.6031 57.375 27.6031 55.35 25.2781C51.45 20.9281 45.6 18.603 39.6 18.603Z" fill="black"/>
</svg>
